# xmcd
#
# Track frame offsets: 
#        150
#        20538
#        54252
#        77763
#        118025
#        151265
#        176335
#        205529
#        235415
#        259917
#        290381
#        301719
#        324724
#
# Disc length: 4737 seconds
#
# Revision: 0
# Processed by: cddbd v1.5.2PL0 Copyright (c) Steve Scherf et al.
# Submitted via: ExactAudioCopy v0.95b3
#
DISCID=a3127f0d
DTITLE=Metallica  - Greatest Hits (2006)
DYEAR=1900
DGENRE=
TTITLE0=Fuel
TTITLE1=One
TTITLE2=For Whom the Bell Tolls
TTITLE3=Master of Puppets (live)
TTITLE4=St. Anger
TTITLE5=Enter Sandman
TTITLE6=The Unforgiven
TTITLE7=The Unforgiven II
TTITLE8=Sad But True
TTITLE9=Wherever I May Roam
TTITLE10=Die, Die My Darling
TTITLE11=Whiskey in the Jar
TTITLE12=Nothing Else Matters (live)
EXTD=
EXTT0=
EXTT1=
EXTT2=
EXTT3=
EXTT4=
EXTT5=
EXTT6=
EXTT7=
EXTT8=
EXTT9=
EXTT10=
EXTT11=
EXTT12=
PLAYORDER=
